<mxfile host="Electron" modified="2024-11-25T14:35:47.795Z" agent="Mozilla/5.0 (Windows NT 10.0; Win64; x64) AppleWebKit/537.36 (KHTML, like Gecko) draw.io/22.1.21 Chrome/120.0.6099.109 Electron/28.1.0 Safari/537.36" etag="o63LvJ1bQAB41GSks9e9" version="22.1.21" type="device">
  <diagram id="C5RBs43oDa-KdzZeNtuy" name="Page-1">
    <mxGraphModel dx="744" dy="2045" grid="1" gridSize="10" guides="1" tooltips="1" connect="1" arrows="1" fold="1" page="1" pageScale="1" pageWidth="827" pageHeight="1169" math="0" shadow="0">
      <root>
        <mxCell id="WIyWlLk6GJQsqaUBKTNV-0" />
        <mxCell id="WIyWlLk6GJQsqaUBKTNV-1" parent="WIyWlLk6GJQsqaUBKTNV-0" />
        <mxCell id="2JxJOKrOQCWzBis1J0rR-3" value="" style="edgeStyle=orthogonalEdgeStyle;rounded=0;orthogonalLoop=1;jettySize=auto;html=1;" edge="1" parent="WIyWlLk6GJQsqaUBKTNV-1" source="WIyWlLk6GJQsqaUBKTNV-3" target="2JxJOKrOQCWzBis1J0rR-2">
          <mxGeometry relative="1" as="geometry" />
        </mxCell>
        <mxCell id="WIyWlLk6GJQsqaUBKTNV-3" value="Lấy danh sách Tên cửa hàng" style="rounded=1;whiteSpace=wrap;html=1;fontSize=12;glass=0;strokeWidth=1;shadow=0;" parent="WIyWlLk6GJQsqaUBKTNV-1" vertex="1">
          <mxGeometry x="160" y="80" width="120" height="40" as="geometry" />
        </mxCell>
        <mxCell id="2JxJOKrOQCWzBis1J0rR-0" value="" style="strokeWidth=2;html=1;shape=mxgraph.flowchart.start_2;whiteSpace=wrap;" vertex="1" parent="WIyWlLk6GJQsqaUBKTNV-1">
          <mxGeometry x="260" y="-10" width="60" height="60" as="geometry" />
        </mxCell>
        <mxCell id="2JxJOKrOQCWzBis1J0rR-1" value="" style="strokeWidth=2;html=1;shape=mxgraph.flowchart.start_2;whiteSpace=wrap;" vertex="1" parent="WIyWlLk6GJQsqaUBKTNV-1">
          <mxGeometry x="50" y="700" width="60" height="60" as="geometry" />
        </mxCell>
        <mxCell id="2JxJOKrOQCWzBis1J0rR-5" value="" style="edgeStyle=orthogonalEdgeStyle;rounded=0;orthogonalLoop=1;jettySize=auto;html=1;" edge="1" parent="WIyWlLk6GJQsqaUBKTNV-1" source="2JxJOKrOQCWzBis1J0rR-2" target="2JxJOKrOQCWzBis1J0rR-4">
          <mxGeometry relative="1" as="geometry" />
        </mxCell>
        <mxCell id="2JxJOKrOQCWzBis1J0rR-2" value="Xóa Tên cửa hàng" style="rounded=1;whiteSpace=wrap;html=1;fontSize=12;glass=0;strokeWidth=1;shadow=0;" vertex="1" parent="WIyWlLk6GJQsqaUBKTNV-1">
          <mxGeometry x="160" y="190" width="120" height="40" as="geometry" />
        </mxCell>
        <mxCell id="2JxJOKrOQCWzBis1J0rR-7" style="edgeStyle=orthogonalEdgeStyle;rounded=0;orthogonalLoop=1;jettySize=auto;html=1;entryX=0.25;entryY=0;entryDx=0;entryDy=0;" edge="1" parent="WIyWlLk6GJQsqaUBKTNV-1" source="2JxJOKrOQCWzBis1J0rR-4" target="2JxJOKrOQCWzBis1J0rR-6">
          <mxGeometry relative="1" as="geometry" />
        </mxCell>
        <mxCell id="2JxJOKrOQCWzBis1J0rR-8" value="Không" style="edgeLabel;html=1;align=center;verticalAlign=middle;resizable=0;points=[];" vertex="1" connectable="0" parent="2JxJOKrOQCWzBis1J0rR-7">
          <mxGeometry x="-0.4442" y="1" relative="1" as="geometry">
            <mxPoint as="offset" />
          </mxGeometry>
        </mxCell>
        <mxCell id="2JxJOKrOQCWzBis1J0rR-11" style="edgeStyle=orthogonalEdgeStyle;rounded=0;orthogonalLoop=1;jettySize=auto;html=1;entryX=0.75;entryY=0;entryDx=0;entryDy=0;" edge="1" parent="WIyWlLk6GJQsqaUBKTNV-1" source="2JxJOKrOQCWzBis1J0rR-4" target="2JxJOKrOQCWzBis1J0rR-10">
          <mxGeometry relative="1" as="geometry" />
        </mxCell>
        <mxCell id="2JxJOKrOQCWzBis1J0rR-12" value="Có" style="edgeLabel;html=1;align=center;verticalAlign=middle;resizable=0;points=[];" vertex="1" connectable="0" parent="2JxJOKrOQCWzBis1J0rR-11">
          <mxGeometry x="-0.3812" y="-2" relative="1" as="geometry">
            <mxPoint as="offset" />
          </mxGeometry>
        </mxCell>
        <mxCell id="2JxJOKrOQCWzBis1J0rR-4" value="Xác nhận xóa" style="strokeWidth=2;html=1;shape=mxgraph.flowchart.decision;whiteSpace=wrap;" vertex="1" parent="WIyWlLk6GJQsqaUBKTNV-1">
          <mxGeometry x="185" y="280" width="70" height="80" as="geometry" />
        </mxCell>
        <mxCell id="2JxJOKrOQCWzBis1J0rR-6" value="Không xóa" style="rounded=1;whiteSpace=wrap;html=1;fontSize=12;glass=0;strokeWidth=1;shadow=0;" vertex="1" parent="WIyWlLk6GJQsqaUBKTNV-1">
          <mxGeometry x="30" y="360" width="120" height="40" as="geometry" />
        </mxCell>
        <mxCell id="2JxJOKrOQCWzBis1J0rR-9" style="edgeStyle=orthogonalEdgeStyle;rounded=0;orthogonalLoop=1;jettySize=auto;html=1;entryX=0;entryY=0.5;entryDx=0;entryDy=0;entryPerimeter=0;exitX=0.25;exitY=1;exitDx=0;exitDy=0;" edge="1" parent="WIyWlLk6GJQsqaUBKTNV-1" source="2JxJOKrOQCWzBis1J0rR-6" target="2JxJOKrOQCWzBis1J0rR-1">
          <mxGeometry relative="1" as="geometry" />
        </mxCell>
        <mxCell id="2JxJOKrOQCWzBis1J0rR-15" value="" style="edgeStyle=orthogonalEdgeStyle;rounded=0;orthogonalLoop=1;jettySize=auto;html=1;" edge="1" parent="WIyWlLk6GJQsqaUBKTNV-1" source="2JxJOKrOQCWzBis1J0rR-10" target="2JxJOKrOQCWzBis1J0rR-13">
          <mxGeometry relative="1" as="geometry" />
        </mxCell>
        <mxCell id="2JxJOKrOQCWzBis1J0rR-10" value="Xóa" style="rounded=1;whiteSpace=wrap;html=1;fontSize=12;glass=0;strokeWidth=1;shadow=0;" vertex="1" parent="WIyWlLk6GJQsqaUBKTNV-1">
          <mxGeometry x="300" y="360" width="120" height="40" as="geometry" />
        </mxCell>
        <mxCell id="2JxJOKrOQCWzBis1J0rR-18" style="edgeStyle=orthogonalEdgeStyle;rounded=0;orthogonalLoop=1;jettySize=auto;html=1;entryX=0.25;entryY=0;entryDx=0;entryDy=0;" edge="1" parent="WIyWlLk6GJQsqaUBKTNV-1" source="2JxJOKrOQCWzBis1J0rR-13" target="2JxJOKrOQCWzBis1J0rR-16">
          <mxGeometry relative="1" as="geometry" />
        </mxCell>
        <mxCell id="2JxJOKrOQCWzBis1J0rR-19" value="Thành công" style="edgeLabel;html=1;align=center;verticalAlign=middle;resizable=0;points=[];" vertex="1" connectable="0" parent="2JxJOKrOQCWzBis1J0rR-18">
          <mxGeometry x="-0.0135" y="-4" relative="1" as="geometry">
            <mxPoint x="1" as="offset" />
          </mxGeometry>
        </mxCell>
        <mxCell id="2JxJOKrOQCWzBis1J0rR-24" style="edgeStyle=orthogonalEdgeStyle;rounded=0;orthogonalLoop=1;jettySize=auto;html=1;entryX=0.5;entryY=0;entryDx=0;entryDy=0;" edge="1" parent="WIyWlLk6GJQsqaUBKTNV-1" source="2JxJOKrOQCWzBis1J0rR-13" target="2JxJOKrOQCWzBis1J0rR-23">
          <mxGeometry relative="1" as="geometry" />
        </mxCell>
        <mxCell id="2JxJOKrOQCWzBis1J0rR-25" value="Không thành công" style="edgeLabel;html=1;align=center;verticalAlign=middle;resizable=0;points=[];" vertex="1" connectable="0" parent="2JxJOKrOQCWzBis1J0rR-24">
          <mxGeometry x="-0.1448" y="4" relative="1" as="geometry">
            <mxPoint x="1" as="offset" />
          </mxGeometry>
        </mxCell>
        <mxCell id="2JxJOKrOQCWzBis1J0rR-13" value="" style="strokeWidth=2;html=1;shape=mxgraph.flowchart.decision;whiteSpace=wrap;" vertex="1" parent="WIyWlLk6GJQsqaUBKTNV-1">
          <mxGeometry x="420" y="480" width="70" height="80" as="geometry" />
        </mxCell>
        <mxCell id="2JxJOKrOQCWzBis1J0rR-21" value="" style="edgeStyle=orthogonalEdgeStyle;rounded=0;orthogonalLoop=1;jettySize=auto;html=1;" edge="1" parent="WIyWlLk6GJQsqaUBKTNV-1" source="2JxJOKrOQCWzBis1J0rR-16" target="2JxJOKrOQCWzBis1J0rR-20">
          <mxGeometry relative="1" as="geometry" />
        </mxCell>
        <mxCell id="2JxJOKrOQCWzBis1J0rR-16" value="Xóa" style="rounded=1;whiteSpace=wrap;html=1;fontSize=12;glass=0;strokeWidth=1;shadow=0;" vertex="1" parent="WIyWlLk6GJQsqaUBKTNV-1">
          <mxGeometry x="240" y="560" width="120" height="40" as="geometry" />
        </mxCell>
        <mxCell id="2JxJOKrOQCWzBis1J0rR-22" style="edgeStyle=orthogonalEdgeStyle;rounded=0;orthogonalLoop=1;jettySize=auto;html=1;" edge="1" parent="WIyWlLk6GJQsqaUBKTNV-1" source="2JxJOKrOQCWzBis1J0rR-20" target="2JxJOKrOQCWzBis1J0rR-1">
          <mxGeometry relative="1" as="geometry" />
        </mxCell>
        <mxCell id="2JxJOKrOQCWzBis1J0rR-20" value="Lấy lại dữ liệu mới" style="rounded=1;whiteSpace=wrap;html=1;fontSize=12;glass=0;strokeWidth=1;shadow=0;" vertex="1" parent="WIyWlLk6GJQsqaUBKTNV-1">
          <mxGeometry x="240" y="660" width="120" height="40" as="geometry" />
        </mxCell>
        <mxCell id="2JxJOKrOQCWzBis1J0rR-26" style="edgeStyle=orthogonalEdgeStyle;rounded=0;orthogonalLoop=1;jettySize=auto;html=1;" edge="1" parent="WIyWlLk6GJQsqaUBKTNV-1" source="2JxJOKrOQCWzBis1J0rR-23" target="2JxJOKrOQCWzBis1J0rR-1">
          <mxGeometry relative="1" as="geometry">
            <Array as="points">
              <mxPoint x="590" y="820" />
              <mxPoint x="80" y="820" />
            </Array>
          </mxGeometry>
        </mxCell>
        <mxCell id="2JxJOKrOQCWzBis1J0rR-23" value="Thông báo lỗi" style="rounded=1;whiteSpace=wrap;html=1;fontSize=12;glass=0;strokeWidth=1;shadow=0;" vertex="1" parent="WIyWlLk6GJQsqaUBKTNV-1">
          <mxGeometry x="530" y="565" width="120" height="40" as="geometry" />
        </mxCell>
      </root>
    </mxGraphModel>
  </diagram>
</mxfile>
